<svg width="553" height="381" viewBox="0 0 553 381" fill="none" xmlns="http://www.w3.org/2000/svg">
<path d="M502.084 15.1779C504.023 14.7152 505.06 15.4481 505.06 15.4481L513.175 21.1844C513.175 21.1844 514.268 21.9569 514.58 23.6779C514.886 25.3672 513.38 27.4977 513.38 27.4977L509.058 33.6118C509.058 33.6118 507.958 35.1681 506.015 35.7949C504.395 36.3172 502.561 35.0206 502.561 35.0206L496.113 30.463C496.113 30.463 493.901 28.899 493.675 27.0725C493.477 25.4663 494.829 23.5536 494.829 23.5536L499.151 17.4395C499.151 17.4395 500.479 15.5605 502.084 15.1779Z" fill="#00DDEE"/>
<path d="M537.851 148.159C539.791 147.696 540.828 148.429 540.828 148.429L548.943 154.166C548.943 154.166 550.036 154.938 550.348 156.659C550.654 158.348 549.148 160.479 549.148 160.479L544.826 166.593C544.826 166.593 543.726 168.149 541.782 168.776C540.163 169.298 538.329 168.002 538.329 168.002L531.881 163.444C531.881 163.444 529.669 161.88 529.443 160.054C529.245 158.448 530.597 156.535 530.597 156.535L534.919 150.421C534.919 150.421 536.247 148.542 537.851 148.159Z" fill="#00DDEE"/>
<path d="M535.415 84.5578C535.91 85.3406 535.744 85.9065 535.744 85.9065L534.444 90.3362C534.444 90.3362 534.269 90.9327 533.56 91.3289C532.864 91.7177 531.701 91.3765 531.701 91.3765L528.363 90.3974C528.363 90.3974 527.514 90.1482 526.946 89.3885C526.473 88.7553 526.766 87.7541 526.766 87.7541L527.799 84.2347C527.799 84.2347 528.153 83.027 528.922 82.653C529.598 82.3241 530.642 82.6304 530.642 82.6304L533.979 83.6095C533.979 83.6095 535.005 83.9104 535.415 84.5578Z" fill="#0055FF"/>
<path d="M18.6802 218.763C19.4796 218.572 19.9068 218.874 19.9068 218.874L23.2511 221.238C23.2511 221.238 23.7015 221.557 23.8301 222.266C23.9563 222.962 23.3357 223.84 23.3357 223.84L21.5546 226.36C21.5546 226.36 21.1012 227.001 20.3003 227.259C19.6329 227.475 18.877 226.94 18.877 226.94L16.2199 225.062C16.2199 225.062 15.3081 224.418 15.2152 223.665C15.1335 223.003 15.6906 222.215 15.6906 222.215L17.4717 219.695C17.4717 219.695 18.0191 218.921 18.6802 218.763Z" fill="#00DDEE"/>
<path d="M24.0196 288.096C26.6097 287.478 27.9938 288.456 27.9938 288.456L38.8289 296.115C38.8289 296.115 40.288 297.147 40.7047 299.445C41.1137 301.7 39.1028 304.545 39.1028 304.545L33.3323 312.708C33.3323 312.708 31.8634 314.786 29.2686 315.623C27.1062 316.32 24.6572 314.589 24.6572 314.589L16.0485 308.504C16.0485 308.504 13.0944 306.416 12.7933 303.977C12.5286 301.832 14.3338 299.279 14.3338 299.279L20.1043 291.115C20.1043 291.115 21.8778 288.606 24.0196 288.096Z" fill="#0055FF"/>
<path d="M2.46674 258.399C1.64638 257.969 1.50723 257.395 1.50723 257.395L0.417854 252.91C0.417854 252.91 0.271148 252.305 0.687379 251.608C1.09593 250.923 2.27371 250.637 2.27371 250.637L5.65354 249.816C5.65354 249.816 6.51386 249.607 7.38558 249.981C8.11201 250.293 8.35824 251.307 8.35824 251.307L9.22378 254.871C9.22378 254.871 9.5208 256.094 9.04204 256.802C8.621 257.425 7.56368 257.682 7.56368 257.682L4.18386 258.503C4.18386 258.503 3.14514 258.755 2.46674 258.399Z" fill="#0055FF"/>
</svg>
