<?xml version="1.0" encoding="UTF-8"?><svg id="Camada_1" xmlns="http://www.w3.org/2000/svg" xmlns:xlink="http://www.w3.org/1999/xlink" viewBox="0 0 500 500"><defs><style>.cls-1{fill:#fff;}.cls-2{stroke:#05f;stroke-linecap:round;stroke-linejoin:round;stroke-width:12.21px;}.cls-2,.cls-3{fill:none;}.cls-4{fill:#c2d6ff;}.cls-5{clip-path:url(#clippath);}</style><clipPath id="clippath"><rect class="cls-3" x="11.6" width="488.4" height="488.4"/></clipPath></defs><g class="cls-5"><g><path class="cls-4" d="M344.48,364.12c76.14-76.14,76.14-199.61,0-275.75-76.14-76.14-199.61-76.14-275.75,0-76.17,76.14-76.17,199.61,0,275.75,76.14,76.17,199.61,76.17,275.75,0Z"/><path class="cls-1" d="M365,357.27c76.14-76.14,76.14-199.61,0-275.75C288.86,5.38,165.4,5.38,89.26,81.53c-76.17,76.14-76.17,199.61,0,275.75,76.14,76.17,199.61,76.17,275.75,0Z"/><path class="cls-2" d="M227.89,101.77v35.86"/><path class="cls-2" d="M227.89,301.29v35.86"/><path class="cls-2" d="M265.02,138.37h-52.54c-20.48,0-37.13,16.68-37.13,37.13,0,16.44,10.84,30.82,26.52,35.63l49.5,14.65c16.41,4.8,27.52,19.95,27.52,36.89,0,21.22-17.18,38.37-38.39,38.37h-56.31"/></g></g></svg>