<?xml version="1.0" encoding="UTF-8"?><svg id="Camada_1" xmlns="http://www.w3.org/2000/svg" viewBox="0 0 500 500"><defs><style>.cls-1{fill:#2f2e41;}.cls-2{fill:#fff;}.cls-3,.cls-4{fill:#05f;}.cls-4{isolation:isolate;opacity:.2;}.cls-5{fill:#0de;}</style></defs><path class="cls-4" d="M203.14,488.4c112.38,0,203.14-89.53,203.14-200.67S315.51,87.06,203.14,87.06,0,177.21,0,288.35s90.76,200.05,203.14,200.05Z"/><path class="cls-2" d="M216.72,475.43c112.38,0,203.14-89.53,203.14-200.67S329.1,74.09,216.72,74.09,13.58,163.62,13.58,274.76s90.76,200.67,203.14,200.67Z"/><path class="cls-3" d="M427.89,128.43h-77.18l-29.64,23.46c-3.09,2.47-8.03,1.85-10.5-1.23-1.23-1.23-1.85-3.09-1.85-4.94V64.21C308.72,29.02,337.74,0,373.55,0h54.34c35.81,0,64.83,29.02,64.83,64.21,.62,35.19-29.02,64.21-64.83,64.21Z"/><path class="cls-2" d="M397.64,87.68l-12.97,9.26c-2.47,1.85-5.56,1.23-7.41-1.23-.62-1.23-1.23-3.09-.62-4.32l4.32-15.44c.62-1.85,0-4.32-1.85-5.56l-12.97-9.88c-2.47-1.85-2.47-4.94-1.23-7.41,1.23-1.23,2.47-1.85,4.32-1.85l16.67-.62c2.47,0,4.32-1.23,4.94-3.7l5.56-14.82c1.23-2.47,3.7-4.32,6.79-3.09,1.23,.62,1.85,1.85,2.47,3.09l5.56,14.82c.62,1.85,2.47,3.09,4.94,3.7l16.05,.62c3.09,0,4.94,2.47,4.94,5.56,0,1.23-.62,3.09-1.85,4.32l-12.97,9.88c-1.85,1.23-2.47,3.7-1.85,5.56l4.32,15.44c.62,2.47-.62,5.56-3.7,6.79-1.85,.62-3.09,0-4.32-.62l-12.97-9.26c-1.85-2.47-4.32-2.47-6.17-1.23Z"/><g><circle class="cls-5" cx="225.99" cy="258.71" r="56.81"/><path class="cls-1" d="M208.08,212.4s26.55,6.79,40.13,9.88,12.35-4.94,12.35-4.94c0,0,17.91,2.47,17.29,.62-.62-1.85,7.41-11.73-2.47-23.46-9.88-11.11-6.79-19.76-6.79-19.76h-8.64l-2.47-3.09h-13.58s-14.82-12.97-40.75-9.26c-25.93,3.7-56.81,13.58-59.89,29.64,0,1.85-.62,4.32-1.23,6.79-6.79,30.25,8.03,58.04,24.08,85.21,3.7,6.79,22.85,20.99,22.23,11.11-.62-9.88-16.67-31.49-5.56-33.34,11.11-1.23,30.87-30.25,25.32-49.4Z"/><path class="cls-3" d="M193.88,442.71c-11.11-.62-22.23-2.47-32.72-5.56l.62-11.11,4.94-90.15v-.62h100.64l16.05,83.36,1.85,11.11c-4.32,1.23-8.03,3.09-12.97,4.32h0c-6.17,1.85-11.73,3.09-17.91,4.94-8.03,1.85-16.67,3.09-24.7,3.7-6.17,.62-12.97,.62-19.14,.62-5.56,0-11.11,0-16.67-.62Z"/><path class="cls-1" d="M129.05,426.66c-4.32-1.85-8.03-3.7-12.35-5.56l-1.23-1.23c-1.23-.62-2.47-1.23-3.7-1.85-1.23-.62-3.09-1.85-4.32-2.47s-3.09-1.85-4.32-2.47h0c-4.94-3.09-9.88-6.17-14.82-9.88-.62-.62-1.23-1.23-2.47-1.85l-.62-13.58,1.23-.62,80.27-51.25,1.23-.62h11.11v42.6c6.17,9.26,10.5,28.4,13.58,54.34,0,3.7,.62,7.41,.62,11.11-11.11-.62-22.23-2.47-32.72-5.56-1.23,0-1.85-.62-3.09-.62-6.79-1.85-13.58-3.7-19.76-6.17-1.85-.62-3.7-1.23-5.56-2.47h0c-1.23-1.23-1.85-1.23-3.09-1.85Z"/><path class="cls-1" d="M111.76,418.01c-1.23-.62-3.09-1.85-4.32-2.47s-3.09-1.85-4.32-2.47h0c-4.94-3.09-9.88-6.17-14.82-9.88-.62-.62-1.23-1.23-2.47-1.85,0,0-.62-.62-1.23-.62-3.09-1.85-5.56-4.32-8.64-6.79h0c2.47-1.85,5.56-3.7,9.26-4.94l3.09,.62,23.46,6.79v21.61Z"/><path class="cls-1" d="M308.72,418.01c-1.23,.62-2.47,1.23-4.32,1.85,0,0-.62,0-.62,.62-1.85,.62-3.7,1.85-5.56,2.47h0c-4.32,1.85-8.03,3.7-12.97,5.56-4.32,1.23-8.03,3.09-12.97,4.32h0c-6.17,1.85-11.73,3.09-17.91,4.94,0-3.7,0-7.41,1.23-11.11v-.62l3.7-64.21-4.94-27.17,15.44-1.85,83.97,45.07s-35.19,35.81-45.07,40.13Z"/><path class="cls-2" d="M74.09,391.46s142.63,134.6,279.7-7.41v-6.79s-70.39,62.36-127.81,63.6c-37.05,0-118.55-18.52-151.89-51.25v1.85Z"/></g></svg>