<?xml version="1.0" encoding="UTF-8"?><svg id="Camada_1" xmlns="http://www.w3.org/2000/svg" viewBox="0 0 500 500"><defs><style>.cls-1{fill:#7698dd;}.cls-1,.cls-2,.cls-3,.cls-4{stroke:#002163;stroke-width:6.12px;}.cls-2{fill:#fff;}.cls-3{fill:#05f;}.cls-4{fill:#0de;}</style></defs><path class="cls-2" d="M411.29,22.05h0c1.65-1.18,4.14-1.94,6.84-1.94s5.18,.76,6.88,1.95c1.74,1.24,2.32,2.58,2.32,3.57V473.82c0,1.02-.59,2.36-2.31,3.56-1.7,1.2-4.17,1.95-6.89,1.95s-5.19-.76-6.84-1.94h-.02c-1.72-1.22-2.31-2.55-2.31-3.57V25.63c0-.99,.59-2.33,2.33-3.57Z"/><path class="cls-4" d="M375.28,327.04c0,22.39,18.17,40.56,40.58,40.56s40.56-18.17,40.56-40.56-18.17-40.58-40.56-40.58-40.58,18.14-40.58,40.58Z"/><path class="cls-2" d="M240.5,25.63c0-1.05,.58-2.37,2.28-3.56,1.71-1.2,4.18-1.96,6.91-1.96s5.19,.76,6.9,1.95c1.69,1.21,2.29,2.54,2.29,3.57V473.82c0,1.03-.6,2.36-2.29,3.57-1.71,1.19-4.17,1.95-6.9,1.95s-5.2-.76-6.91-1.96l-1.76,2.51,1.76-2.51c-1.69-1.19-2.28-2.51-2.28-3.56V25.63Z"/><path class="cls-1" d="M208.4,265.81c0,22.41,18.17,40.58,40.58,40.58s40.58-18.17,40.58-40.58-18.17-40.58-40.58-40.58-40.58,18.2-40.58,40.58Z"/><path class="cls-2" d="M75.18,25.63c0-1.05,.58-2.37,2.28-3.56,1.71-1.2,4.18-1.96,6.91-1.96s5.19,.76,6.9,1.95c1.69,1.21,2.29,2.54,2.29,3.57V473.82c0,1.03-.6,2.36-2.29,3.57-1.71,1.19-4.17,1.95-6.9,1.95s-5.2-.76-6.91-1.96l-1.76,2.51,1.76-2.51c-1.69-1.19-2.28-2.51-2.28-3.56V25.63Z"/><path class="cls-3" d="M41.51,161.72c0,22.41,18.17,40.58,40.58,40.58s40.58-18.17,40.58-40.58-18.17-40.58-40.58-40.58-40.58,18.2-40.58,40.58Z"/></svg>