<?xml version="1.0" encoding="UTF-8"?><svg id="Camada_1" xmlns="http://www.w3.org/2000/svg" viewBox="0 0 450 185"><defs><style>.cls-1{fill-rule:evenodd;}.cls-1,.cls-2{fill:#6d6d6d;}.cls-3{fill:none;stroke:#6d6d6d;stroke-miterlimit:10;stroke-width:3.44px;}</style></defs><rect class="cls-3" x="25" y="50.72" width="400" height="83.57"/><path class="cls-1" d="M45.92,115.13l6.53-4.36,6.53,4.36-13.05,8.71v-8.71h0Zm62.68-45.26l-6.53,4.36-6.53-4.36,13.06-8.71v8.71h0Zm0,33.09l-13.06-8.71-15.67,10.44,6.53,4.36-8.48,5.65-18.28-12.18,30.03-20.03-6.53-4.35-37.21,24.82,31.34,20.89,31.34-20.89h0Zm-62.68-20.9l13.05,8.71,15.67-10.44-6.53-4.36,8.48-5.65,18.29,12.18-30.03,20.03,6.52,4.35,37.22-24.81-31.34-20.89-31.34,20.89Z"/><g><path class="cls-2" d="M391.52,113.47h-12.86v-5.37h12.13c1.33,0,2.36-.44,3.1-1.35,.73-.91,1.1-2.04,1.1-3.42,0-1.53-1.47-3.01-4.41-4.4l-8.14-3.84c-2.94-1.91-4.41-4.32-4.41-7.19,0-6.3,4.25-9.45,12.76-9.45h10.45v5.78h-9.35c-2.94,0-4.41,1.22-4.41,3.67,0,1.72,1.47,3.25,4.41,4.57,2.17,.97,4.16,1.8,5.99,2.46,.73,.28,1.45,.55,2.15,.79,2.94,1.86,4.41,4.29,4.41,7.3,0,4.55-1.35,7.54-4.04,8.98-1.86,.97-4.81,1.47-8.87,1.47Z"/><path class="cls-2" d="M362.57,114.26c6.08,0,10.08-1.9,11.97-5.68,1.12-2.24,1.69-6.41,1.69-12.49s-.56-10.57-1.69-12.82c-1.85-3.7-5.84-5.56-11.97-5.56s-10.06,1.86-11.92,5.56c-1.15,2.33-1.73,6.59-1.73,12.82s.58,10.23,1.73,12.49c1.93,3.78,5.9,5.68,11.92,5.68h0Zm0-31.29c2.06,0,3.4,1.15,3.99,3.45,.35,1.37,.53,4.59,.53,9.67s-.18,8.29-.53,9.66c-.56,2.17-1.89,3.25-3.99,3.25s-3.37-1.06-3.93-3.2c-.36-1.36-.53-4.6-.53-9.71s.17-8.18,.53-9.61c.56-2.34,1.87-3.51,3.93-3.51Z"/><path class="cls-2" d="M347.69,113.47l-7.56-17.11c4.17-.77,6.25-3.73,6.25-8.88,0-2.79-.79-5-2.34-6.61-1.56-1.61-3.74-2.42-6.54-2.42h-16.43v35.02h8.98v-29.67h2.93c1.5,0,2.68,.5,3.52,1.48,.85,.98,1.26,2.22,1.26,3.73,0,1.32-.28,2.46-.84,3.41-.69,1.08-1.67,1.64-2.93,1.64h-2.47l8.19,19.42h7.99Z"/><path class="cls-2" d="M307.41,78.44v24.73c0,3.64-1.33,5.45-3.99,5.45s-4.04-1.81-4.04-5.45v-24.73h-8.82v25.16c0,4.09,1.13,6.94,3.4,8.55,1.94,1.4,5.08,2.11,9.45,2.11s7.41-.73,9.4-2.16c2.28-1.68,3.41-4.52,3.41-8.5v-25.16h-8.82Z"/><path class="cls-2" d="M286.64,88.95c.21-3.72-.87-6.54-3.26-8.51-2.14-1.78-5.1-2.67-8.92-2.67-5.81,0-9.7,1.82-11.65,5.46-1.3,2.38-1.95,6.69-1.95,12.91,0,6.93,.9,11.59,2.69,13.97,2.06,2.77,6.28,4.16,12.65,4.16,2,0,5.39-.41,10.18-1.21v-17.33h-12.6v5.19h4.42v7.62c-.64,.45-1.55,.68-2.74,.68-2.73,0-4.46-1.52-5.2-4.62-.28-1.22-.41-3.89-.41-7.98,0-4.87,.22-8.11,.63-9.7,.62-2.46,1.96-3.69,3.99-3.69,1.33,0,2.33,.66,2.99,1.99,.49,1.02,.74,2.26,.74,3.73h8.45Z"/><polygon class="cls-2" points="258.82 113.47 258.82 108.1 246.28 108.1 246.28 98.23 257.46 98.23 257.46 92.99 246.28 92.99 246.28 84.22 258.35 84.22 258.35 78.44 237.47 78.44 237.47 113.47 258.82 113.47"/><path class="cls-2" d="M218.67,113.47h-15.6v-6.31h14.6c3.5,0,5.24-1.58,5.24-4.77,0-1.99-1.8-3.85-5.41-5.57l-10.02-4.78c-3.61-2.38-5.41-5.38-5.41-9.03,0-4.41,1.57-7.53,4.73-9.39,2.48-1.44,6.13-2.15,10.97-2.15h13.02v6.98h-11.77c-1.82,0-3.16,.3-4.01,.9-.86,.6-1.29,1.63-1.29,3.08,0,1.09,.43,2.18,1.32,3.26,.98,1.18,2.32,2.16,4.04,2.95l9.98,4.57c3.6,2.28,5.4,5.11,5.4,8.55,0,4.87-1.66,8.18-4.98,9.93-2.24,1.19-5.85,1.79-10.81,1.79Z"/><path class="cls-2" d="M175.42,95.08c1.68,.12,2.98,.71,3.89,1.79,.91,1.09,1.36,2.49,1.36,4.21,0,3.67-1.75,5.64-5.25,5.92h-5.35v-11.92h5.35Zm.06,18.38h1.16c9.87,0,14.81-3.71,14.81-11.13,0-3.29-.69-5.79-2.05-7.48-1.36-1.69-3.68-2.75-6.93-3.17v-.11c5.49-.9,8.24-3.99,8.24-9.23,0-4.16-1.36-7.11-4.1-8.83-2.17-1.36-5.46-2.04-9.87-2.04h-17.85v42h16.59Zm-.06-35.55c1.4,.04,2.49,.59,3.26,1.68,.7,.94,1.04,2.15,1.04,3.62,0,1.27-.34,2.43-1.04,3.51-.81,1.24-1.82,1.85-3.05,1.85h-5.56v-10.66h5.35Z"/><path class="cls-2" d="M134.16,95.08h5.35c1.68,.12,2.98,.71,3.89,1.79,.92,1.09,1.37,2.49,1.37,4.21,0,3.67-1.76,5.64-5.26,5.92h-5.35v-11.92h0Zm5.35-6.5h-5.35v-10.66h5.35c1.41,.04,2.49,.59,3.26,1.68,.7,.94,1.05,2.15,1.05,3.62,0,1.27-.35,2.43-1.05,3.51-.81,1.24-1.81,1.85-3.04,1.85h-.22Zm.05-17.11h-16.59v42h17.75c9.87,0,14.81-3.71,14.81-11.13,0-3.29-.68-5.79-2.05-7.48-1.37-1.69-3.68-2.75-6.93-3.17v-.11c5.49-.9,8.25-3.99,8.25-9.23,0-4.16-1.37-7.11-4.1-8.83-2.17-1.36-5.46-2.04-9.87-2.04h-1.26Z"/></g></svg>