<?xml version="1.0" encoding="UTF-8"?><svg id="Camada_1" xmlns="http://www.w3.org/2000/svg" viewBox="0 0 450 185"><defs><style>.cls-1{fill:#a6a6a6;}.cls-2{fill:#6d6d6d;}</style></defs><path id="path2" class="cls-2" d="M273.41,43.89c-1.81,0-3.54,.72-4.82,2-1.25,1.25-2,3.02-2,4.83v82.41c0,1.81,.72,3.55,2,4.83,2.66,2.66,6.97,2.66,9.63,0h0c1.25-1.26,2-3.02,2-4.83V50.71c0-1.81-.72-3.55-2-4.83-1.28-1.28-3.01-2-4.82-2h0Zm-103.88,29.05c0-3.77-3.05-6.82-6.81-6.82s-6.81,3.06-6.81,6.82v60.19c0,3.77,3.05,6.82,6.81,6.82s6.81-3.06,6.81-6.82v-60.19Z"/><path id="path4" class="cls-1" d="M171.46,50.73c-.04,2.29-.98,4.47-2.62,6.07-1.63,1.6-3.83,2.5-6.12,2.5s-4.48-.9-6.12-2.5c-1.63-1.6-2.57-3.79-2.62-6.07,0-2.32,.92-4.55,2.56-6.19,1.63-1.64,3.85-2.56,6.17-2.56s4.54,.92,6.18,2.56c1.64,1.64,2.56,3.87,2.56,6.19h0Z"/><path id="path6" class="cls-2" d="M254.28,87.89c-6.55-14.83-22.05-25.31-39.73-23.5-5.96,.63-11.7,2.63-16.75,5.85-5.06,3.22-9.31,7.57-12.41,12.7-3.1,5.14-4.97,10.92-5.47,16.9-.5,5.98,.39,12,2.6,17.57,2.21,5.58,5.68,10.57,10.13,14.58,4.46,4.01,9.78,6.94,15.55,8.55,5.77,1.61,11.87,1.86,17.73,.73s11.43-3.6,16.2-7.23c.8-.62,1.46-1.4,1.92-2.3,.46-.9,.71-1.89,.74-2.91,.11-3.74-2.83-6.86-6.57-6.97-1.54-.05-3.06,.43-4.29,1.36-4.72,3.64-10.59,5.48-16.54,5.18-4.84-.25-9.52-1.88-13.44-4.7-3.95-2.82-7.02-6.71-8.84-11.21-.51-1.26,0-2.7,1.2-3.34,.38-.21,.81-.31,1.24-.31h47.33c1.51,0,3.01-.29,4.41-.86s2.67-1.42,3.74-2.49,1.92-2.34,2.51-3.74c.58-1.4,.88-2.9,.88-4.41-.09-3.25-.81-6.46-2.11-9.44h-.04Zm-35.7-10.17c5.07,0,10.02,1.52,14.21,4.37,4.19,2.85,7.44,6.89,9.31,11.6,.16,.4,.22,.84,.17,1.27-.1,.87-.61,1.64-1.39,2.05-.38,.2-.81,.31-1.24,.31h-42.14c-.43,0-.86-.11-1.24-.31-.38-.21-.71-.5-.95-.85-.24-.35-.39-.77-.44-1.2-.05-.43,.01-.86,.17-1.27,1.87-4.71,5.12-8.75,9.31-11.6,4.19-2.81,9.14-4.37,14.21-4.37h0Zm110.69,50.7c-4.86,0-9.61-1.4-13.7-4.03-4.08-2.63-7.33-6.38-9.37-10.81-4.11-9.04-2.57-19.65,3.94-27.15l-10.31-8.8c-3.34,3.88-5.88,8.38-7.47,13.24-1.6,4.86-2.22,9.99-1.83,15.1,.39,5.1,1.78,10.08,4.06,14.65,2.31,4.56,5.5,8.63,9.39,11.95,3.88,3.33,8.39,5.85,13.25,7.44,4.86,1.58,9.99,2.19,15.08,1.78,5.09-.41,10.06-1.82,14.61-4.16,4.55-2.33,8.6-5.54,11.9-9.45l-10.31-8.8c-2.37,2.83-5.34,5.11-8.69,6.67-3.35,1.56-6.99,2.37-10.69,2.37h.13Z"/><path id="path8" class="cls-1" d="M329.27,64.16c-5.58,0-11.09,1.19-16.16,3.52-5.07,2.32-9.58,5.72-13.22,9.94l10.28,8.8c4.38-5.05,10.58-8.17,17.24-8.66,6.66-.49,13.25,1.67,18.33,6.02,5.08,4.35,8.23,10.53,8.78,17.2,.54,6.67-1.56,13.28-5.87,18.4l10.28,8.8c4.78-5.66,7.85-12.57,8.84-19.92,.99-7.35-.14-14.83-3.26-21.56-3.12-6.73-8.09-12.42-14.33-16.42-6.26-3.97-13.51-6.12-20.92-6.12h0Z"/><path id="path10" class="cls-2" d="M143.35,123.54c-1.17-1.02-2.66-1.61-4.22-1.66s-3.08,.42-4.32,1.35c-3.75,2.87-8.22,4.63-12.92,5.09-4.7,.46-9.43-.41-13.66-2.5-4.23-2.09-7.79-5.32-10.29-9.33-5.09-8.18-5.11-18.54-.04-26.74,2.48-4.02,6.03-7.26,10.26-9.37,4.22-2.1,8.95-2.98,13.65-2.54,4.7,.44,9.18,2.19,12.94,5.05,2.54,1.96,6.1,1.87,8.53-.21,.77-.66,1.37-1.47,1.78-2.38,.41-.92,.61-1.92,.59-2.92-.02-1.01-.27-1.99-.72-2.89-.45-.9-1.1-1.69-1.89-2.3-5.76-4.41-12.63-7.11-19.85-7.81-7.22-.7-14.48,.64-20.98,3.86-6.5,3.22-11.96,8.21-15.78,14.38-3.82,6.17-5.83,13.29-5.82,20.55,.02,7.26,2.05,14.37,5.89,20.52,3.84,6.16,9.32,11.12,15.82,14.31,6.51,3.2,13.78,4.51,20.99,3.79,7.21-.72,14.08-3.45,19.82-7.88,1.58-1.24,2.52-3.12,2.56-5.13,.04-2.01-.82-3.93-2.35-5.23h0Z"/></svg>