<svg id="Grupo_14" data-name="Grupo 14" xmlns="http://www.w3.org/2000/svg" xmlns:xlink="http://www.w3.org/1999/xlink" width="409.884" height="106.852" viewBox="0 0 409.884 106.852">
  <defs>
    <clipPath id="clip-path">
      <rect id="Retângulo_54" data-name="Retângulo 54" width="409.884" height="106.852" transform="translate(0 0)" fill="none"/>
    </clipPath>
  </defs>
  <g id="Grupo_13" data-name="Grupo 13" clip-path="url(#clip-path)">
    <rect id="Retângulo_51" data-name="Retângulo 51" width="408.178" height="105.146" transform="translate(0.853 0.853)" fill="none" stroke="#fff" stroke-miterlimit="10" stroke-width="1.706"/>
    <path id="Caminho_41" data-name="Caminho 41" d="M47.714,70.242h8.528c1.275-.425,2.125-.425,2.975-1.275a4.353,4.353,0,0,0,2.125-2.55c.85-.851.85-2.551.85-4.251a9.024,9.024,0,0,0-1.7-5.977q-1.913-2.55-6.375-2.55h-6.4Zm0-25.529h7.678c.425,0,1.275-.425,1.7-.425a3.324,3.324,0,0,0,1.7-1.7,4.306,4.306,0,0,0,1.7-2.152,8.285,8.285,0,0,0,.425-3.4,8.542,8.542,0,0,0-1.7-5.525,5.482,5.482,0,0,0-4.675-2.126H47.714ZM31.961,79.593V20.432H56.667a44.174,44.174,0,0,1,7.677.425,14.574,14.574,0,0,1,5.951,2.577c1.7,1.275,3.4,2.55,4.277,4.675a20.305,20.305,0,0,1,1.7,7.651,13.628,13.628,0,0,1-3,8.528c-1.7,2.125-4.675,3.825-8.5,4.675,2.551.425,4.676.85,5.951,1.7A10.386,10.386,0,0,1,76.7,58.314a22.678,22.678,0,0,1,.425,5.552c0,3.826-.85,6.8-2.125,8.5-1.727,2.125-3.427,3.826-5.977,4.676a18.751,18.751,0,0,1-6.4,2.125c-2.551,0-4.251.425-5.951.425Z" fill="#fff"/>
    <path id="Caminho_42" data-name="Caminho 42" d="M47.714,70.242h8.528c1.275-.425,2.125-.425,2.975-1.275a4.353,4.353,0,0,0,2.125-2.55c.85-.851.85-2.551.85-4.251a9.024,9.024,0,0,0-1.7-5.977q-1.913-2.55-6.375-2.55h-6.4Zm0-25.529h7.678c.425,0,1.275-.425,1.7-.425a3.324,3.324,0,0,0,1.7-1.7,4.306,4.306,0,0,0,1.7-2.152,8.285,8.285,0,0,0,.425-3.4,8.542,8.542,0,0,0-1.7-5.525,5.482,5.482,0,0,0-4.675-2.126H47.714ZM31.961,79.593V20.432H56.667a44.174,44.174,0,0,1,7.677.425,14.574,14.574,0,0,1,5.951,2.577c1.7,1.275,3.4,2.55,4.277,4.675a20.305,20.305,0,0,1,1.7,7.651,13.628,13.628,0,0,1-3,8.528c-1.7,2.125-4.675,3.825-8.5,4.675,2.551.425,4.676.85,5.951,1.7A10.386,10.386,0,0,1,76.7,58.314a22.678,22.678,0,0,1,.425,5.552c0,3.826-.85,6.8-2.125,8.5-1.727,2.125-3.427,3.826-5.977,4.676a18.751,18.751,0,0,1-6.4,2.125c-2.551,0-4.251.425-5.951.425Z" fill="none" stroke="#fff" stroke-miterlimit="10" stroke-width="1"/>
    <path id="Caminho_43" data-name="Caminho 43" d="M113.331,79.593,99.7,53.213h5.1a5.539,5.539,0,0,0,4.7-2.125,6.774,6.774,0,0,0,1.7-5.1c0-2.551-.425-4.251-1.7-5.552a6.838,6.838,0,0,0-5.128-1.7h-7.65V79.593H84.348V31.084h25.583a15.637,15.637,0,0,1,10.227,3.4c2.551,2.125,3.826,5.1,3.826,9.377a15.63,15.63,0,0,1-2.125,8.5c-1.7,2.126-4.278,3.4-7.678,3.826l11.928,23.4Z" fill="#fff"/>
    <path id="Caminho_44" data-name="Caminho 44" d="M113.331,79.593,99.7,53.213h5.1a5.539,5.539,0,0,0,4.7-2.125,6.774,6.774,0,0,0,1.7-5.1c0-2.551-.425-4.251-1.7-5.552a6.838,6.838,0,0,0-5.128-1.7h-7.65V79.593H84.348V31.084h25.583a15.637,15.637,0,0,1,10.227,3.4c2.551,2.125,3.826,5.1,3.826,9.377a15.63,15.63,0,0,1-2.125,8.5c-1.7,2.126-4.278,3.4-7.678,3.826l11.928,23.4Z" fill="none" stroke="#fff" stroke-miterlimit="10" stroke-width="1"/>
    <path id="Caminho_45" data-name="Caminho 45" d="M146.564,41.737l-4.25,19.579h9.378Zm-21.3,37.856,14.93-48.083h14.9L169.57,79.593h-13.2l-2.975-10.626H140.614l-3,10.626Z" fill="#fff"/>
    <path id="Caminho_46" data-name="Caminho 46" d="M146.564,41.737l-4.25,19.579h9.378Zm-21.3,37.856,14.93-48.083h14.9L169.57,79.593h-13.2l-2.975-10.626H140.614l-3,10.626Z" fill="none" stroke="#fff" stroke-miterlimit="10" stroke-width="1"/>
    <path id="Caminho_47" data-name="Caminho 47" d="M169.995,79.593V71.942H187.05c2.125,0,3.825-.425,4.676-1.275a7.551,7.551,0,0,0,1.7-4.25,4.333,4.333,0,0,0-2.126-3.4c-1.275-.85-2.55-2.152-4.25-2.577-2.125-.85-3.825-1.7-5.977-2.55-2.125-.85-4.251-2.125-5.951-2.975-1.7-1.275-3.427-2.551-4.277-4.251a10.155,10.155,0,0,1-2.125-5.95,16.041,16.041,0,0,1,.85-5.128c.85-1.7,1.7-3.4,3-4.25,1.275-1.275,3.4-2.125,5.525-2.975,2.551-.85,5.553-.85,9.378-.85h14.9v7.225H188.75a8.567,8.567,0,0,0-4.675,1.275,5.273,5.273,0,0,0-1.3,3.852,4.64,4.64,0,0,0,1.727,3.826,37.375,37.375,0,0,0,4.25,2.55,32.853,32.853,0,0,0,5.977,2.125c2.126.85,4.251,2.126,5.951,2.976,1.7,1.275,3.4,2.55,4.277,4.25a10.58,10.58,0,0,1,2.125,6.4,16.437,16.437,0,0,1-1.7,7.226,20.936,20.936,0,0,1-4.277,4.251,24.358,24.358,0,0,1-5.951,1.7c-2.151,0-4.7.425-6.827.425Z" fill="#fff"/>
    <path id="Caminho_48" data-name="Caminho 48" d="M169.995,79.593V71.942H187.05c2.125,0,3.825-.425,4.676-1.275a7.551,7.551,0,0,0,1.7-4.25,4.333,4.333,0,0,0-2.126-3.4c-1.275-.85-2.55-2.152-4.25-2.577-2.125-.85-3.825-1.7-5.977-2.55-2.125-.85-4.251-2.125-5.951-2.975-1.7-1.275-3.427-2.551-4.277-4.251a10.155,10.155,0,0,1-2.125-5.95,16.041,16.041,0,0,1,.85-5.128c.85-1.7,1.7-3.4,3-4.25,1.275-1.275,3.4-2.125,5.525-2.975,2.551-.85,5.553-.85,9.378-.85h14.9v7.225H188.75a8.567,8.567,0,0,0-4.675,1.275,5.273,5.273,0,0,0-1.3,3.852,4.64,4.64,0,0,0,1.727,3.826,37.375,37.375,0,0,0,4.25,2.55,32.853,32.853,0,0,0,5.977,2.125c2.126.85,4.251,2.126,5.951,2.976,1.7,1.275,3.4,2.55,4.277,4.25a10.58,10.58,0,0,1,2.125,6.4,16.437,16.437,0,0,1-1.7,7.226,20.936,20.936,0,0,1-4.277,4.251,24.358,24.358,0,0,1-5.951,1.7c-2.151,0-4.7.425-6.827.425Z" fill="none" stroke="#fff" stroke-miterlimit="10" stroke-width="1"/>
    <rect id="Retângulo_52" data-name="Retângulo 52" width="12.751" height="48.03" transform="translate(212.766 31.457)" fill="#fff"/>
    <rect id="Retângulo_53" data-name="Retângulo 53" width="12.751" height="48.03" transform="translate(212.766 31.457)" fill="none" stroke="#fff" stroke-miterlimit="10" stroke-width="1"/>
    <path id="Caminho_49" data-name="Caminho 49" d="M233.486,79.593V31.51h12.353V71.942h15.78v7.651Z" fill="#fff"/>
    <path id="Caminho_50" data-name="Caminho 50" d="M233.486,79.593V31.51h12.353V71.942h15.78v7.651Z" fill="none" stroke="#fff" stroke-miterlimit="10" stroke-width="1"/>
    <path id="Caminho_51" data-name="Caminho 51" d="M264.17,79.593V71.942h17.055c2.125,0,3.825-.425,4.676-1.275a5.456,5.456,0,0,0,1.7-4.25,5.247,5.247,0,0,0-1.7-3.4,16.571,16.571,0,0,0-4.676-2.577c-1.727-.85-3.852-1.7-5.977-2.55s-3.826-2.125-5.977-2.975a20.134,20.134,0,0,1-4.251-4.251,9.758,9.758,0,0,1-1.7-5.95c0-2.126,0-3.852.85-5.128a7.227,7.227,0,0,1,2.55-4.25A19.633,19.633,0,0,1,272.7,32.36c2.126-.85,5.1-.85,8.953-.85h14.9v7.225H282.925a6.423,6.423,0,0,0-4.277,1.275,4.191,4.191,0,0,0-1.7,3.852,4.615,4.615,0,0,0,1.7,3.826,23.355,23.355,0,0,0,4.7,2.55,21.356,21.356,0,0,0,5.526,2.125c2.125.85,4.277,2.126,5.977,2.976a22.305,22.305,0,0,1,4.676,4.25,14.3,14.3,0,0,1,1.7,6.4c0,2.976-.425,5.526-1.7,7.226-.85,1.7-2.551,2.976-4.251,4.251a24.239,24.239,0,0,1-5.977,1.7c-2.125,0-4.251.425-6.8.425Z" fill="#fff"/>
    <path id="Caminho_52" data-name="Caminho 52" d="M264.17,79.593V71.942h17.055c2.125,0,3.825-.425,4.676-1.275a5.456,5.456,0,0,0,1.7-4.25,5.247,5.247,0,0,0-1.7-3.4,16.571,16.571,0,0,0-4.676-2.577c-1.727-.85-3.852-1.7-5.977-2.55s-3.826-2.125-5.977-2.975a20.134,20.134,0,0,1-4.251-4.251,9.758,9.758,0,0,1-1.7-5.95c0-2.126,0-3.852.85-5.128a7.227,7.227,0,0,1,2.55-4.25A19.633,19.633,0,0,1,272.7,32.36c2.126-.85,5.1-.85,8.953-.85h14.9v7.225H282.925a6.423,6.423,0,0,0-4.277,1.275,4.191,4.191,0,0,0-1.7,3.852,4.615,4.615,0,0,0,1.7,3.826,23.355,23.355,0,0,0,4.7,2.55,21.356,21.356,0,0,0,5.526,2.125c2.125.85,4.277,2.126,5.977,2.976a22.305,22.305,0,0,1,4.676,4.25,14.3,14.3,0,0,1,1.7,6.4c0,2.976-.425,5.526-1.7,7.226-.85,1.7-2.551,2.976-4.251,4.251a24.239,24.239,0,0,1-5.977,1.7c-2.125,0-4.251.425-6.8.425Z" fill="none" stroke="#fff" stroke-miterlimit="10" stroke-width="1"/>
    <path id="Caminho_53" data-name="Caminho 53" d="M306.78,79.593V31.51h29.833v7.225H319.558V50.663h15.78v7.226h-15.78V71.942h17.9v7.651Z" fill="#fff"/>
    <path id="Caminho_54" data-name="Caminho 54" d="M306.78,79.593V31.51h29.833v7.225H319.558V50.663h15.78v7.226h-15.78V71.942h17.9v7.651Z" fill="none" stroke="#fff" stroke-miterlimit="10" stroke-width="1"/>
    <path id="Caminho_55" data-name="Caminho 55" d="M366.845,46.838c0-.85-.425-1.7-.425-2.975a6.269,6.269,0,0,0-.85-2.577,3.318,3.318,0,0,0-1.7-1.7,6.045,6.045,0,0,0-2.551-.85,4.143,4.143,0,0,0-3.825,1.7,8.393,8.393,0,0,0-1.727,3.852,18.863,18.863,0,0,0-.85,5.525v6.376a60.394,60.394,0,0,0,.425,9.378,8.849,8.849,0,0,0,1.3,5.1,3.835,3.835,0,0,0,2.55,2.551,8.488,8.488,0,0,0,3.826.85,41.194,41.194,0,0,0,3.825-.85V62.591h-6.376V54.914h17.9V79.593a8.357,8.357,0,0,0-3,.425,11.769,11.769,0,0,0-3.826.425c-1.275,0-2.55.452-3.825.452H363.87a42.861,42.861,0,0,1-11.5-1.3,15.556,15.556,0,0,1-6.8-4.25,19.664,19.664,0,0,1-3-8.076,79.91,79.91,0,0,1-.85-11.5c0-2.975.425-5.951.425-8.926a25.8,25.8,0,0,1,2.55-8.1,15.406,15.406,0,0,1,5.978-5.526,23.548,23.548,0,0,1,10.652-2.125,20.1,20.1,0,0,1,7.253,1.275,13.172,13.172,0,0,1,5.525,2.55c1.7,1.275,2.976,2.55,3.4,4.676a13.347,13.347,0,0,1,1.3,5.977v1.275Z" fill="#fff"/>
    <path id="Caminho_56" data-name="Caminho 56" d="M366.845,46.838c0-.85-.425-1.7-.425-2.975a6.269,6.269,0,0,0-.85-2.577,3.318,3.318,0,0,0-1.7-1.7,6.045,6.045,0,0,0-2.551-.85,4.143,4.143,0,0,0-3.825,1.7,8.393,8.393,0,0,0-1.727,3.852,18.863,18.863,0,0,0-.85,5.525v6.376a60.394,60.394,0,0,0,.425,9.378,8.849,8.849,0,0,0,1.3,5.1,3.835,3.835,0,0,0,2.55,2.551,8.488,8.488,0,0,0,3.826.85,41.194,41.194,0,0,0,3.825-.85V62.591h-6.376V54.914h17.9V79.593a8.357,8.357,0,0,0-3,.425,11.769,11.769,0,0,0-3.826.425c-1.275,0-2.55.452-3.825.452H363.87a42.861,42.861,0,0,1-11.5-1.3,15.556,15.556,0,0,1-6.8-4.25,19.664,19.664,0,0,1-3-8.076,79.91,79.91,0,0,1-.85-11.5c0-2.975.425-5.951.425-8.926a25.8,25.8,0,0,1,2.55-8.1,15.406,15.406,0,0,1,5.978-5.526,23.548,23.548,0,0,1,10.652-2.125,20.1,20.1,0,0,1,7.253,1.275,13.172,13.172,0,0,1,5.525,2.55c1.7,1.275,2.976,2.55,3.4,4.676a13.347,13.347,0,0,1,1.3,5.977v1.275Z" fill="none" stroke="#fff" stroke-miterlimit="10" stroke-width="1"/>
  </g>
</svg>
