<?xml version="1.0" standalone="no"?>
<!DOCTYPE svg PUBLIC "-//W3C//DTD SVG 20010904//EN" "http://www.w3.org/TR/2001/REC-SVG-20010904/DTD/svg10.dtd">
<svg version="1.0" xmlns="http://www.w3.org/2000/svg" width="450.000000pt" height="185.000000pt" viewBox="0 0 450.000000 185.000000" preserveAspectRatio="xMidYMid meet">

    <g transform="translate(0.000000,185.000000) scale(0.100000,-0.100000)" fill="#fff" stroke="none">
        <path d="M495 1309 c-161 -23 -258 -78 -290 -164 -39 -100 9 -188 179 -329
126 -105 196 -179 226 -242 l23 -46 21 33 c30 47 27 113 -7 171 -14 24 -82 98
-152 163 -136 127 -155 153 -155 212 0 75 62 133 179 167 74 22 98 19 35 -3
-121 -44 -164 -82 -164 -145 0 -55 32 -100 117 -166 132 -104 196 -173 218
-238 12 -35 13 -35 25 -12 7 12 14 48 17 79 6 75 -13 108 -117 198 -122 105
-138 138 -102 198 24 39 96 77 202 109 l85 25 -140 -1 c-77 0 -167 -4 -200 -9z" />
        <path d="M1046 1302 c-3 -5 -33 -142 -67 -305 -71 -334 -71 -353 -10 -394 32
-22 44 -23 197 -23 l164 0 -27 54 -28 55 -72 0 c-86 1 -121 13 -128 43 -3 13
19 140 50 283 30 143 55 268 55 278 0 14 -10 17 -64 17 -36 0 -67 -4 -70 -8z" />
        <path d="M3016 1301 c-12 -18 -156 -703 -150 -712 3 -5 34 -9 69 -9 59 0 65 2
70 23 17 71 145 686 145 696 0 13 -126 16 -134 2z" />
        <path d="M3241 1260 c-20 -92 -20 -91 56 -88 l68 3 12 50 c20 88 22 85 -56 85
l-69 0 -11 -50z" />
        <path d="M1527 1116 c-90 -25 -135 -90 -169 -239 -35 -162 -10 -246 87 -282
35 -14 66 -17 148 -13 119 5 169 26 211 87 37 53 69 182 70 276 1 68 -2 85
-22 113 -13 18 -38 40 -55 49 -42 22 -204 28 -270 9z m176 -116 c35 -28 40
-63 22 -148 -26 -126 -56 -162 -136 -162 -55 0 -94 26 -104 68 -7 32 18 160
40 202 8 16 25 36 37 44 33 23 109 21 141 -4z" />
        <path d="M2125 1121 c-73 -18 -128 -67 -155 -136 -22 -57 -50 -227 -44 -264
10 -55 40 -98 88 -120 35 -17 62 -21 148 -21 117 0 110 -4 124 73 l6 37 -86 0
c-79 0 -89 2 -111 25 -28 28 -32 71 -14 157 16 72 42 122 74 136 14 7 66 12
115 12 49 0 91 4 94 9 4 5 9 30 12 55 l7 46 -114 -1 c-63 -1 -127 -4 -144 -8z" />
        <path d="M2486 1122 c-3 -6 -9 -31 -12 -56 l-7 -46 100 0 c114 0 137 -10 131
-55 l-3 -30 -90 -6 c-103 -7 -154 -27 -203 -83 -47 -54 -65 -137 -40 -191 6
-14 28 -35 47 -48 32 -19 52 -22 181 -25 110 -3 149 0 162 10 20 15 91 324 91
399 1 52 -18 89 -60 116 -22 14 -54 19 -159 21 -82 3 -134 0 -138 -6z m186
-277 c3 -3 -2 -39 -10 -81 l-15 -76 -65 4 c-49 3 -68 9 -79 24 -16 21 -10 71
11 92 27 28 141 54 158 37z" />
        <path d="M3216 1121 c-5 -7 -116 -522 -116 -536 0 -3 29 -5 65 -5 58 0 66 2
75 23 10 25 110 489 110 512 0 12 -13 15 -64 15 -36 0 -67 -4 -70 -9z" />
        <path d="M3452 1118 c-5 -7 -13 -32 -17 -55 l-7 -43 117 0 117 0 -39 -44 c-21
-24 -90 -100 -154 -169 -90 -97 -118 -133 -123 -162 -4 -20 -10 -43 -13 -51
-4 -12 26 -14 195 -14 l201 0 10 38 c21 73 24 71 -104 74 l-116 3 161 172 c88
95 160 179 160 187 0 7 3 28 6 45 l7 31 -196 0 c-143 0 -197 -3 -205 -12z" />
        <path d="M3947 1123 c-3 -5 -8 -29 -12 -55 l-7 -48 106 0 c101 0 106 -1 122
-25 9 -14 13 -32 9 -45 -6 -18 -15 -20 -81 -20 -138 0 -231 -57 -260 -158 -20
-66 -12 -110 24 -144 39 -37 90 -48 234 -48 121 0 128 1 142 23 23 37 90 378
82 419 -8 46 -44 84 -92 97 -44 12 -260 15 -267 4z m193 -282 c0 -5 -7 -41
-16 -80 l-16 -71 -48 0 c-59 0 -95 13 -104 36 -10 25 12 82 37 96 44 24 147
37 147 19z" />
    </g>
</svg>