<?xml version="1.0" encoding="UTF-8"?><svg id="Camada_1" xmlns="http://www.w3.org/2000/svg" viewBox="0 0 450 185"><defs><style>.cls-1{fill:#6d6d6d;fill-rule:evenodd;}</style></defs><path id="path32-5" class="cls-1" d="M60.61,108.79c-1.93,1.77-4.72,2.34-6.46,2.57-3.55,.46-7.23-.73-9.58-3.61-1.93-2.31-2.91-5.34-4.79-7.76-2.97-3.8-7.72-6.3-12.61-5.42-9.67,1.77-14.06,13.14-8.59,21.06,7.81,11.26,25.39,9.3,34.4,1.5,2.81-2.42,5.43-5.15,7.63-8.34h0Z"/><path id="path34-3" class="cls-1" d="M388.96,108.79c1.96,1.77,4.77,2.34,6.53,2.57,3.57,.46,7.3-.73,9.65-3.61,1.96-2.31,2.96-5.34,4.84-7.76,3.04-3.8,7.8-6.3,12.76-5.42,9.76,1.77,14.18,13.14,8.65,21.06-7.88,11.26-25.63,9.3-34.7,1.5-2.84-2.42-5.5-5.15-7.72-8.34h0Z"/><path id="path36-7" class="cls-1" d="M356.91,48.96h-23.52c-2.5,.08-4.61,2.46-4.73,4.88-.12,2.57,2.11,5.11,4.73,5.27h23.52c2.5-.08,4.61-2.46,4.73-4.88,.12-2.57-2.11-5.11-4.73-5.26h0Z"/><path id="path38-4" class="cls-1" d="M209.77,99.15c-.33-1.31-.5-2.65-.59-3.96-.01-1.92-.01-4.61-.01-7.11,.24-8.57,1.85-23.67-9.83-23.67-7.89,0-12.57,6.61-13.89,8.76-.19-6-4.97-10.38-12.26-10.38-4.65,0-7.42,3.69-7.42,3.69,0,0,4.54,1.58,4.54,7.65,.04,4.34-.01,25.52,0,25.59,.18,3.77,2.81,7.26,7.52,7.26s7.63-3.61,7.63-7.26v-18.79c.66-3.07,2.39-6.19,5.01-6.19,3.39,0,3.58,3.77,3.6,3.77l-.02,18.18c.02,.58,.09,1.15,.2,1.69,.17,.96,.45,1.84,.87,2.65,1.81,3.65,5.81,6.03,11.19,6.03,4.65,0,7.42-3.69,7.42-3.69,0,0-2.73-.96-3.95-4.23h0Z"/><path id="path40-5" class="cls-1" d="M320.98,99.19c-.31-1.35-.46-2.65-.58-3.96l.04-44.85c0-4.34-3.5-7.88-7.8-7.88s-7.76,3.54-7.76,7.88v39.7c.04,3.57-.31,7.22,1.35,10.53,1.77,3.65,6.11,6.46,11.38,6.46,4.57,0,7.26-3.65,7.26-3.65,0,0-2.65-.96-3.88-4.23h0Z"/><path id="path42-3" class="cls-1" d="M144.31,64.18c-11.84,0-21.44,9.61-21.44,21.44s9.6,21.44,21.44,21.44,21.44-9.61,21.44-21.44-9.6-21.44-21.44-21.44h0Zm.16,33.78h-.09c-4.05-.08-6.08-4.73-6.08-12.34s2.57-12.26,6.08-12.34h.09c3.5,.08,6.08,4.73,6.08,12.34s-2.03,12.26-6.08,12.34h0Z"/><path id="path44-6" class="cls-1" d="M257.77,99.11c-.32-1.31-.5-2.65-.58-3.96V50.38c.01-4.34-3.51-7.88-7.86-7.88s-7.87,3.54-7.87,7.88l-.03,21.21c-1.89-2.65-6.06-7.11-12.64-7.11-18.07,0-19.22,32.24-6.82,40.2,3.5,2.27,8.76,2.84,12.75,1.81,2.76-.73,7.09-3.42,7.8-6.65,.1,.23,.2,.46,.32,.69,1.78,3.65,6.18,6.46,11.5,6.46,4.62,0,7.34-3.69,7.34-3.69,0,0-2.69-.92-3.91-4.19h0Zm-23.46-2.57h-.09c-4.04-.08-6.06-4.15-6.06-10.76s2.56-10.65,6.06-10.72h.09c3.5,.08,6.06,4.11,6.06,10.72s-2.03,10.68-6.06,10.76Z"/><path id="path46-5" class="cls-1" d="M299.03,93.84s-2.31,3.15-11.26,3.15-10.86-6.92-10.86-6.92c13.05,0,23.97-.88,23.97-11.41s-11.91-14.03-19-14.03c-11.68,0-20.2,9.3-20.2,21.6,0,13.8,11.11,20.83,20.33,20.83,16.22,0,17.02-13.22,17.02-13.22Zm-22.96-10.53c.46-3.38,1.26-7.61,4.29-9.57,2.52-1.65,6.03,.23,6.1,3.34,.03,3.34-2.1,5.61-5.09,6.23-.32,.08-5.35,.31-5.3,0h0Z"/><path id="path48-7" class="cls-1" d="M362.21,93.84s-2.31,3.15-11.26,3.15-10.88-6.92-10.88-6.92c13.07,0,23.98-.88,23.98-11.41s-11.91-14.03-18.98-14.03c-11.68,0-20.21,9.3-20.21,21.6,0,13.8,11.11,20.83,20.33,20.83,16.22,0,17.02-13.22,17.02-13.22h0Zm-22.98-10.53c.46-3.38,1.27-7.61,4.3-9.57,2.54-1.65,6.03,.23,6.11,3.34,.04,3.34-2.11,5.61-5.11,6.23-.31,.08-5.34,.31-5.3,0Z"/><path id="path50-3" class="cls-1" d="M392,94.84h-9.03c.65,0,7.34-5.65,9.57-7.49,5.8-4.92,16.26-11.99,13.22-21.18v.08c-.58-2.19-2.27-3.46-2.27-3.46,0,0-.61,1.77-2.77,2.57-.88,.23-1.77,.38-2.61,.42-.73,.04-25.29,0-25.29,0-3.3,0-6.11,2.65-6.15,5.8-.03,3.15,2.57,5.69,5.96,5.73l14.33,.12c-6.65,3.69-14.57,8.03-18.6,14.72-2.31,3.8-4.77,9.72-3.84,14.26,3.19-2.84,11.53-5.53,17.91-4.23,2.38,.5,4.92,1.69,6.96,3,11.91,7.42,19.1-7.11,13.41-13.49,0,0-3.27,3.15-10.8,3.15h0Z"/><path id="path52-6" class="cls-1" d="M124.28,103.91c-7.3-7.99-9.58-21.21-10.03-30.05-.38-7.57,.02-20.75,6.05-24.6-2.02-2.54-5.99-3.54-9.01-3.54-6.79,0-10.06,4.5-12.38,7.72-.76,1.08-12.18,16.76-12.18,16.76,0,0-9.6-14.8-10.78-16.56-1.63-2.46-4.68-6.96-10.05-7.72-2.31-.35-8.3-.65-11.57,3.8,5.62,4.5,5.48,15.91,4.27,23.67-3.67,23.4-13.66,25.56-13.66,25.56,5.12,13.76,18.3,8.34,22.03-2.65,2.41-7.15,3.97-16.18,4.33-23.67l14.47,22.1s16.38-22.02,16.38-21.98c-2.7,38.93,10.74,50,22.49,50s15.76-10.72,15.76-10.72c-6.36-.38-11.93-3.57-16.11-8.11h0Z"/><path id="path54-2" class="cls-1" d="M160.97,116.9c.14,.58,.22,1.15,.25,1.69,0,.19,0,20.45,0,20.71,.05,1.69,1.61,3.11,3.22,3.19,1.71,.08,3.4-1.42,3.49-3.19,0-.23,0-18.52,0-18.52-.01-1.5,.13-3.07-.58-4.5-.76-1.58-2.64-2.77-4.9-2.77-1.98,0-3.14,1.58-3.14,1.58,0,0,1.15,.42,1.67,1.81h0Z"/><path id="path56-1" class="cls-1" d="M374.86,138.73c-.15-.58-.23-1.15-.27-1.69v-20.71c-.04-1.69-1.61-3.11-3.23-3.19-1.69-.08-3.38,1.42-3.5,3.19v18.52c.04,1.5-.12,3.07,.62,4.5,.73,1.58,2.61,2.77,4.88,2.77,2,0,3.15-1.58,3.15-1.58,0,0-1.15-.42-1.65-1.81h0Z"/><path id="path58-4" class="cls-1" d="M252.73,123.74c-3.45,0-5.49,3-6.07,4h-.02v-1.81c-.05-1.73-1.6-3.04-3.18-3.11-1.69-.08-3.36,1.31-3.45,3.11,0,.23,0,13.14,0,13.34,.05,1.73,1.59,3.15,3.18,3.23,1.69,.08,3.36-1.46,3.45-3.23,0-.15,0-4.38,0-7.99h.02c.28-1.42,1.04-2.84,2.19-2.84,1.48,0,1.56,1.73,1.57,1.73v9.11c.04,1.73,1.58,3.15,3.17,3.23,1.69,.08,3.36-1.46,3.45-3.23v-4.77c-.01-4.92,.48-10.76-4.31-10.76h0Z"/><path id="path60-8" class="cls-1" d="M339.31,123.74c-3.54,0-5.65,3-6.23,4h-.03v-1.81c-.04-1.73-1.61-3.04-3.27-3.11-1.73-.08-3.46,1.31-3.54,3.11v13.34c.08,1.73,1.65,3.15,3.27,3.23,1.73,.08,3.46-1.46,3.54-3.23v-7.99h.03c.31-1.42,1.08-2.84,2.27-2.84,1.5,0,1.58,1.73,1.58,1.73v9.11c.04,1.73,1.65,3.15,3.27,3.23,1.73,.08,3.46-1.46,3.54-3.23v-4.77c0-4.92,.5-10.76-4.42-10.76h0Z"/><path id="path62-5" class="cls-1" d="M184.35,123.74c-3.54,0-5.63,3-6.23,4h-.02c0-1,0-1.77,0-1.81-.05-1.73-1.64-3.04-3.27-3.11-1.74-.08-3.45,1.31-3.54,3.11,0,.23,0,13.14,0,13.34,.05,1.73,1.64,3.15,3.27,3.23,1.73,.08,3.45-1.46,3.54-3.23,0-.15,0-4.38,0-7.99h.02c.29-1.42,1.07-2.84,2.24-2.84,1.52,0,1.6,1.73,1.61,1.73v9.11c.04,1.73,1.63,3.15,3.26,3.23,1.74,.08,3.45-1.46,3.54-3.23v-4.77c-.01-4.92,.5-10.76-4.43-10.76h0Z"/><path id="path64-2" class="cls-1" d="M314.71,123.2c-5.34,0-9.68,4.23-9.68,9.45s4.34,9.45,9.68,9.45,9.68-4.23,9.68-9.45-4.34-9.45-9.68-9.45Zm.08,14.91h-.04c-1.84-.04-2.77-2.11-2.77-5.46s1.19-5.42,2.77-5.46h.04c1.58,.04,2.73,2.11,2.73,5.46s-.92,5.42-2.73,5.46Z"/><path id="path66-8" class="cls-1" d="M278.73,125.66c-.05-1.77-1.75-3.23-3.46-3.31-1.81-.08-3.62,1.46-3.71,3.31,0,.15-.01,.42-.01,.46-.86-1.19-2.76-3.15-5.75-3.15-8.21,0-8.73,14.33-3.1,17.87,1.59,1,3.99,1.27,5.8,.81,1.03-.27,2.53-1.11,3.22-2.23,.42,1.42,1.85,2.5,3.31,2.57,1.82,.08,3.62-1.46,3.71-3.31,0-.23,0-12.87,0-13.03h0Zm-10.42,11.57h-.04c-1.83-.04-2.75-1.84-2.75-4.8s1.16-4.73,2.75-4.77h.04c1.59,.04,2.75,1.84,2.75,4.77s-.92,4.77-2.75,4.8Z"/><path id="path68-2" class="cls-1" d="M364.98,125.66c-.08-1.77-1.77-3.23-3.46-3.31-1.84-.08-3.65,1.46-3.73,3.31v.46c-.88-1.19-2.77-3.15-5.76-3.15-8.22,0-8.72,14.33-3.07,17.87,1.58,1,3.96,1.27,5.76,.81,1.04-.27,2.54-1.11,3.23-2.23,.42,1.42,1.84,2.5,3.31,2.57,1.84,.08,3.61-1.46,3.73-3.31v-13.03h0Zm-10.41,11.57h-.08c-1.81-.04-2.73-1.84-2.73-4.8s1.15-4.73,2.73-4.77h.08c1.58,.04,2.73,1.84,2.73,4.77s-.92,4.77-2.73,4.8Z"/><path id="path70-5" class="cls-1" d="M302.72,127.7c-.08-1.65-1.35-2.96-2.92-3.07-.12-.04-.19-.04-.27-.04-1.46,0-3.27,1.27-3.27,2.88v6.15h0c.03,1.88,0,5.34,0,5.38,.08,1.65,1.35,2.96,2.92,3.07,.12,.04,.19,.04,.27,.04,1.46,0,3.27-1.27,3.27-2.88v-5.11h0c-.03-1.92,0-6.38,0-6.42Z"/><path id="path72-3" class="cls-1" d="M302.72,119.05c0,1.77-1.46,3.23-3.23,3.23s-3.23-1.46-3.23-3.23,1.46-3.23,3.23-3.23,3.23,1.46,3.23,3.23Z"/><path id="path74-9" class="cls-1" d="M234.32,123.47c-1.97,.08-2.94,1.61-4.28,3.5,0,.04,0-.88,0-.92-.05-1.69-1.59-3.15-3.18-3.23-1.69-.08-3.36,1.46-3.45,3.23v13.22h0c.05,1.69,1.59,3.15,3.18,3.23,1.68,.08,3.33-1.42,3.44-3.19h.01v-8.34c.1-1.23,.61-2.77,1.56-2.77,1.35,0-.04,3.38,3.04,3.38,4.43,0,4.9-8.34-.33-8.11h0Z"/><path id="path76-3" class="cls-1" d="M220.7,136.23s-1.06,1.38-5.16,1.38-4.99-3.07-4.99-3.07c5.98,0,11-.38,11-5.07s-5.47-6.26-8.72-6.26c-5.35,0-9.27,4.15-9.27,9.61,0,6.19,5.1,9.3,9.32,9.3,7.46,0,7.81-5.88,7.81-5.88h0Zm-10.53-4.73c.21-1.5,.58-3.38,1.97-4.23,1.15-.73,2.77,.08,2.79,1.46,.02,1.5-.96,2.5-2.33,2.81-.15,0-2.46,.12-2.44-.04h0Z"/><path id="path78-7" class="cls-1" d="M203.56,138.58s-1.76,3.54-5.01,3.54c-2.68,0-5.96-2.34-6.11-5.76,0-.04-.02-4.92-.03-9.03h-.91c-.47,0-1.31-.27-1.31-1.5s.95-1.5,1.41-1.5h.8c0-1.42,0-2.42,0-2.46,.09-1.77,1.79-3.27,3.51-3.19,1.62,.08,3.23,1.5,3.28,3.19h0v2.46h2.86c.4,0,1.31,.27,1.31,1.5s-.92,1.5-1.41,1.5h-2.77v7.53c0,2.46,2.11,3.69,4.38,3.73h0Z"/><path id="path80-9" class="cls-1" d="M293.96,138.58s-1.77,3.54-5.03,3.54c-2.65,0-5.95-2.34-6.09-5.76,0-.04-.02-4.92-.03-9.03h-.91c-.47,0-1.31-.27-1.31-1.5s.95-1.5,1.41-1.5h.8c0-1.42,0-2.42,0-2.46,.09-1.77,1.79-3.27,3.52-3.19,1.61,.08,3.23,1.5,3.27,3.19h0v2.46h2.88c.38,0,1.31,.27,1.31,1.5s-.92,1.5-1.42,1.5h-2.77v7.53c0,2.46,2.11,3.69,4.38,3.73h0Z"/></svg>