<?xml version="1.0" encoding="UTF-8"?><svg id="Camada_1" xmlns="http://www.w3.org/2000/svg" viewBox="0 0 450 185"><defs><style>.cls-1{fill:#6d6d6d;}</style></defs><path class="cls-1" d="M320.44,100.53c5.38-4.18,8.59-11.18,8.59-18.73,0-7.07-2.43-12.92-7.43-17.86-4.92-4.87-10.97-7.34-17.99-7.34h-29.49c-3.01,0-5.46,2.55-5.46,5.67v63.82c0,.55,.45,1,1.01,1h17.07c.56,0,1.01-.45,1.01-1v-51.62h15.34c3.98,0,6.9,3.31,6.94,7.87,.02,2.41-.91,4.68-2.61,6.37-1.64,1.63-3.79,2.53-6.07,2.53h-6.59c-.39,0-.73,.2-.91,.53-.19,.33-.18,.72,.02,1.05l21.69,33.8c.18,.3,.51,.48,.86,.48h18.49c.8,0,1.29-.88,.85-1.55l-15.93-24.54,.61-.47Z"/><path class="cls-1" d="M365.77,92.37l-17.61-35.19c-.17-.36-.53-.59-.93-.59h-18.9c-.76,0-1.25,.78-.92,1.45l33.29,66.07c.96,1.82,2.91,2.96,5.07,2.98,2.14,.03,4.07-1.09,5.1-2.98l33.47-66.07c.34-.67-.16-1.45-.92-1.45h-19.12c-.4,0-.76,.23-.93,.59l-17.59,35.19Z"/><path class="cls-1" d="M253.59,57.05c-2.22-.9-4.34-.48-6.34,1.27l-30.31,31.49-30.14-31.33c-2.05-1.76-4.22-2.33-6.44-1.47-2.3,.9-3.73,2.98-3.73,5.43v63.64c0,.55,.45,.99,1.01,.99h16.98c.56,0,1.01-.45,1.01-.99v-31.12l17.46,17.79c2.07,2.08,5.64,2.07,7.68,.01l17.47-17.8v31.12c0,.55,.45,.99,1.01,.99h16.98c.56,0,1.01-.45,1.01-.99V62.45c0-2.42-1.4-4.49-3.66-5.41"/><path class="cls-1" d="M144.9,134.52c0,1.89-1.56,3.44-3.48,3.44h-63.17c-1.92,0-3.48-1.54-3.48-3.44v-5.64h31.72c2.86,0,5.18-2.3,5.18-5.12v-12.45c0-1.14-.45-2.21-1.26-3.01l-16.22-16.02,44.76-44.21c1.03-1.02,2.45-1.29,3.79-.75,1.34,.55,2.15,1.73,2.15,3.17v84.03Zm-53.96-39.03l16.14,15.94v12.33c0,.32-.26,.58-.58,.58h-31.71v-12.9l16.16-15.95Zm-36.85,28.85c-2.17,0-3.94-1.75-3.94-3.89v-55.86c0-1.63,.91-2.97,2.43-3.6,.51-.21,1.04-.31,1.55-.31,1.01,0,1.97,.4,2.74,1.16l30.81,30.44-16.23,16.03h0c-.81,.81-1.26,1.87-1.26,3.01v13.02h-16.1ZM144.51,43.12c-3.07-1.25-6.45-.59-8.8,1.73l-44.76,44.21-30.81-30.44c-2.49-2.46-6.05-3.16-9.3-1.83-3.25,1.33-5.27,4.32-5.27,7.79v55.86c0,4.65,3.83,8.44,8.54,8.44h16.08v5.64c0,4.4,3.62,7.98,8.07,7.98h63.17c4.46,0,8.08-3.58,8.08-7.98V50.48c0-3.29-1.92-6.11-5-7.36"/></svg>