<?xml version="1.0" encoding="UTF-8"?><svg id="Camada_1" xmlns="http://www.w3.org/2000/svg" viewBox="0 0 450 185"><defs><style>.cls-1{fill:#6d6d6d;}</style></defs><path id="path30" class="cls-1" d="M268.86,50.87c-24.48-.11-44.43,19.61-44.6,44.09,.01,24.63,19.99,44.59,44.62,44.58,24.62-.01,44.57-19.96,44.58-44.58-.17-24.48-20.12-44.21-44.6-44.09h0Zm0,67.38c-12.86-.15-23.17-10.69-23.03-23.55,.15-12.86,10.69-23.17,23.55-23.03,12.76,.14,23.03,10.53,23.03,23.29-.07,12.94-10.62,23.36-23.56,23.29h0Z"/><path id="path32" class="cls-1" d="M374.53,50.87c-27.7-.12-50.26,22.2-50.46,49.9-.02,13.26,5.3,25.96,14.76,35.24,4.13,4.05,10.74,4.05,14.87,0,4.06-4,4.12-10.53,.12-14.6-.04-.04-.08-.08-.12-.12-11.36-11.17-11.51-29.43-.34-40.79,.11-.11,.22-.23,.34-.34,11.54-11.36,30.06-11.36,41.6,0,11.36,11.17,11.51,29.43,.34,40.79-.11,.11-.22,.23-.34,.34-4.06,4-4.12,10.53-.12,14.59,.04,.04,.08,.08,.12,.12,4.13,4.05,10.74,4.05,14.87,0,9.48-9.27,14.83-21.98,14.83-35.24-.19-27.7-22.77-50.02-50.47-49.9h0Z"/><path id="path34" class="cls-1" d="M75.46,50.87c-27.7-.12-50.27,22.2-50.46,49.9-.02,13.25,5.3,25.96,14.76,35.24,4.13,4.05,10.74,4.05,14.87,0,4.06-4,4.12-10.53,.12-14.6-.04-.04-.08-.08-.12-.12-11.36-11.17-11.51-29.43-.34-40.79,.11-.11,.23-.23,.34-.34,11.54-11.36,30.06-11.36,41.6,0,11.36,11.17,11.51,29.43,.34,40.79-.11,.11-.23,.23-.34,.34-4.06,4-4.12,10.53-.12,14.6,.04,.04,.08,.08,.12,.12,4.13,4.05,10.74,4.05,14.87,0,9.48-9.27,14.83-21.98,14.83-35.24-.19-27.7-22.76-50.01-50.46-49.9h0Z"/><path id="path36" class="cls-1" d="M212.75,77.82c3.97-4.08,3.88-10.62-.2-14.59-.04-.04-.08-.08-.12-.12-17.92-16.98-46.21-16.23-63.19,1.69-7.73,8.15-12.1,18.92-12.25,30.15,.33,24.68,20.61,44.42,45.3,44.09,11.23-.15,22-4.53,30.15-12.25,4.15-3.91,4.34-10.44,.44-14.59-.04-.04-.08-.08-.12-.12-4.04-4.14-10.66-4.28-14.87-.32-9.34,8.81-23.99,8.61-33.07-.46-9.03-9.01-9.05-23.64-.04-32.67l.04-.04c9.09-9.07,23.74-9.27,33.07-.46,4.21,3.97,10.83,3.83,14.87-.32h0Z"/><ellipse id="ellipse38" class="cls-1" cx="181.58" cy="94.96" rx="10.51" ry="10.4" transform="translate(-.52 1.01) rotate(-.32)"/></svg>