<?xml version="1.0" encoding="UTF-8"?><svg id="Camada_1" xmlns="http://www.w3.org/2000/svg" viewBox="0 0 450 185"><defs><style>.cls-1{fill:#6d6d6d;fill-rule:evenodd;}</style></defs><path class="cls-1" d="M62.66,97.81c19.02-6.15,43.41-10.98,50.8-1.77,.24,.32,.75,.08,.63-.32-5.42-23.89-37.12-22.08-52.86-16.25-.16,.04-.28,.2-.24,.36,.79,4.58,1.23,9.25,1.23,14.68h0c0,1.01,0,2.01-.04,2.98,0,.24,.24,.4,.47,.32Zm34.16,24.33c-.43,.48,.24,1.13,.75,.72,38.51-31.85-.75-32.37-35.54-18.14-.12,.04-.2,.16-.2,.28-1.27,10.13-3.99,17.33-7.04,21.75-.2,.28,.12,.64,.47,.48,55.51-25.69,49.22-13.07,41.55-5.11ZM51.31,58.72c-.4,0-.51,.44-.2,.6,2.81,2.17,5.65,6.07,7.95,13.39,.04,.16,.24,.28,.43,.24,28.11-5.91,40.33,.84,44.83,4.83,.28,.28,.75-.08,.55-.4-14.38-18.61-41.8-18.64-52.41-18.66-.41,0-.8,0-1.17,0Zm-1.58-8.61h63.22c5.42,0,9.81,4.54,9.84,10.13V125.47c0,5.59-4.43,10.13-9.84,10.13H49.73c-5.46,0-9.84-4.54-9.84-10.13V60.25c0-5.59,4.43-10.13,9.84-10.13Zm104.85,39.45h17.04c9.37,0,13.21-6.11,13.21-12.95s-3.83-12.95-13.21-12.95h-17.04v25.9Zm-16.01-39.45h33.76c17.55,0,27.99,10.98,27.99,26.54s-10.44,26.5-27.99,26.5h-17.79v32.49h-15.97V50.12Zm174.71,64.06V55.55h14.75v18.58h16.92v12.59h-16.92v26.02c0,6.23,3.24,9.41,8.78,9.41h8.18v13.55h-9.84c-13.21,0-21.86-7.84-21.86-21.51Zm50.84-9.33c0,11.14,6.72,18.82,16.8,18.82s16.72-7.68,16.68-18.82c0-11.14-6.72-18.82-16.68-18.82s-16.8,7.68-16.8,18.82Zm-14.91,0c0-18.34,13.21-31.77,31.71-31.77s31.59,13.43,31.59,31.77-13.21,31.77-31.59,31.77-31.71-13.43-31.71-31.77Zm-116.79,18.82c-10.08,0-16.8-7.68-16.8-18.82s6.72-18.82,16.8-18.82,16.68,7.68,16.68,18.82-6.72,18.82-16.68,18.82Zm0-50.59c-18.5,0-31.71,13.43-31.71,31.77s13.21,31.77,31.71,31.77,31.59-13.43,31.59-31.77-13.24-31.77-31.59-31.77Zm52.9,62.57v-38.6c0-6.23,3.24-9.41,8.78-9.41h11.78v-13.55h-13.44c-13.21,0-21.86,7.8-21.86,21.51v40.09h14.75v-.04Z"/></svg>