<?xml version="1.0" encoding="UTF-8"?><svg id="Camada_1" xmlns="http://www.w3.org/2000/svg" viewBox="0 0 450 185"><defs><style>.cls-1{fill:#6d6d6d;fill-rule:evenodd;}</style></defs><path id="path2" class="cls-1" d="M378.73,54.66c0,4.28-1.49,10.95-6.18,15.67-1.27,1.29-2.69,2.43-4.22,3.41-2.2,1.44-3.8,2.44-2.9,4.83,.88,2.34,3.6,1.61,6.18,1.02,.83-.2,17.02-4.13,17.23-4.14,4.34-.83,8.56,1.89,9.59,6.18l1.32,5.48c1.04,4.29-1.46,8.65-5.69,9.91-.18,.08-17.88,4.39-17.91,4.4-3.36,.87-5.33,2.55-5.31,5.8,0,1.45,.84,3.03,1.88,4.33,0,0,19.29,23.86,19.39,24.04,2.62,3.56,2,8.54-1.42,11.34l-4.37,3.57c-3.41,2.79-8.42,2.41-11.37-.87-.16-.13-12.14-14.82-13.41-16.39-1.27-1.55-2.87-3.93-5.09-3.92-2.21,0-3.79,2.39-5.06,3.95-1.26,1.57-13.18,16.32-13.33,16.45-2.93,3.3-7.94,3.71-11.37,.93-.04-.03-4.37-3.54-4.38-3.55-3.42-2.79-4.07-7.76-1.48-11.33,.09-.19,19.28-24.14,19.28-24.14,1.03-1.31,1.86-2.89,1.86-4.34-.01-3.25-1.98-4.92-5.35-5.77-.03,0-17.74-4.23-17.92-4.31-4.24-1.24-6.76-5.59-5.74-9.88,0-.05,1.29-5.48,1.3-5.49,1.02-4.29,5.22-7.03,9.56-6.23,.2,0,16.41,3.86,17.25,4.06,2.58,.57,5.32,1.3,6.18-1.05,.88-2.4-.72-3.39-2.92-4.82-1.54-.97-2.96-2.1-4.24-3.39-4.71-4.69-6.24-11.37-6.25-15.64-.03-12.27,10.15-22.23,22.39-22.27,12.23-.03,22.46,9.89,22.49,22.16h0ZM81.44,128.83c-.97,0-4.67-.51-6.71-4.24l-23.8-42.28c-2.44-4.48,.43-8.28,2.98-9.22l6.33-2.84c3.4-1.53,7.5,.09,9.03,3.66l14.93,30.1h.22l14.95-30.1c1.53-3.57,5.62-5.18,9.03-3.66l6.33,2.84c2.54,.94,5.42,4.74,2.98,9.22l-23.8,42.28c-1.35,2.49-3.89,4.09-6.72,4.23h-5.75Zm104.56,0c-2.83-.14-5.37-1.75-6.72-4.24l-23.8-42.28c-2.44-4.48,.44-8.28,2.98-9.22l6.33-2.84c3.41-1.53,7.49,.09,9.03,3.66l14.93,30.1h.22l14.94-30.1c1.54-3.57,5.63-5.18,9.03-3.66l6.33,2.84c2.54,.94,5.42,4.74,2.98,9.22l-23.8,42.28c-1.34,2.49-3.89,4.1-6.72,4.23h-5.75Zm69.84-58.96c16.41,0,29.7,13.33,29.7,29.77s-13.29,29.79-29.7,29.79-29.7-13.34-29.7-29.79,13.3-29.77,29.7-29.77h0Zm-107.61-16.95c0,6.45-5.21,11.67-11.64,11.67-6.43,0-11.65-5.22-11.64-11.66h0c0-6.46,5.21-11.68,11.64-11.68,6.44,0,11.65,5.23,11.64,11.67h0Zm107.62,58.48c6.48-.01,11.73-5.28,11.72-11.76,0-6.48-5.24-11.74-11.72-11.75-6.48,0-11.73,5.27-11.72,11.75h0c-.01,6.48,5.24,11.75,11.72,11.76h0ZM126.45,77.69c0-3.98,3.21-7.2,7.18-7.2h6.01c3.97,0,7.18,3.22,7.18,7.2v43.95c0,3.98-3.21,7.2-7.18,7.2h-6.01c-3.97,0-7.18-3.22-7.18-7.19h0v-43.95h0Z"/></svg>